<?xml version="1.0" encoding="UTF-8" standalone="no"?>
<svg width="196px" height="80px" viewBox="0 0 196 80" version="1.1" xmlns="http://www.w3.org/2000/svg" xmlns:xlink="http://www.w3.org/1999/xlink" xmlns:sketch="http://www.bohemiancoding.com/sketch/ns">
    <!-- Generator: Sketch 3.2.2 (9983) - http://www.bohemiancoding.com/sketch -->
    <title>su-logo--big</title>
    <desc>Created with Sketch.</desc>
    <defs></defs>
    <g id="Page-1" stroke="none" stroke-width="1" fill="none" fill-rule="evenodd" sketch:type="MSPage">
        <g id="su-logo--big" sketch:type="MSLayerGroup" fill="#000000">
            <path d="M37.9914676,61.5884104 L37.9914676,66.0224104 C37.9914676,70.8054104 37.3501958,73.1104104 35.557047,75.3564104 C33.1226265,78.3564104 29.0086368,79.8544104 23.1597958,79.8544104 C17.657724,79.8544104 13.314565,78.8174104 10.1273035,76.6844104 C6.99934448,74.5534104 6.01733422,72.0164104 6.01733422,65.7934104 L6.01733422,47.2954104 C6.01733422,44.9914104 5.67157012,43.8344104 4.9760214,42.8564104 C4.21915986,41.8214104 3.23413422,41.4754104 0.628841914,41.2464104 L0.628841914,40.6684104 L22.4672624,40.6684104 L22.4672624,41.2464104 C20.0368624,41.4754104 19.1624009,41.7624104 18.410565,42.8564104 C18.0637958,43.3194104 17.8285958,43.9494104 17.7160214,44.5884104 C17.4828317,45.8564104 17.4275496,46.7764104 17.4275496,50.5804104 L17.4275496,64.0084104 C17.4275496,70.0574104 17.7160214,72.2444104 18.7583393,74.1514104 C20.0368624,76.4544104 23.2190983,77.9514104 26.9270163,77.9514104 C29.708206,77.9514104 32.2531906,77.1454104 33.8764727,75.8774104 C34.8052111,75.1294104 35.6153445,74.0924104 36.1329855,72.9404104 C36.9451291,71.1554104 37.1783188,69.7114104 37.1783188,66.0224104 L37.1783188,60.7234104 C37.1783188,56.0554104 37.0024214,53.1724104 36.4264829,49.6004104 C36.1329855,47.9854104 35.7319393,46.4894104 35.1509752,45.2194104 C34.2262573,43.0324104 33.2955086,42.1664104 30.7495188,41.2464104 L30.7495188,40.6684104 L45.4022778,40.6684104 L45.4022778,41.2464104 C43.0291701,41.7624104 42.1044522,42.3954104 40.9415188,44.3014104 C38.8548727,47.6984104 37.9914676,52.9444104 37.9914676,61.5884104 Z" id="Fill-1" sketch:type="MSShapeGroup"></path>
            <path d="M57.2973333,79.11 L57.2973333,78.532 C59.4955487,78.303 60.0182154,77.612 60.0182154,74.33 L60.0182154,61.993 C60.0182154,57.213 59.9589128,56.407 59.3779487,55.313 C58.9758974,54.506 57.8189949,53.868 56.7786872,53.868 C55.4398564,53.868 53.9914667,54.565 52.4284923,55.944 L52.4284923,74.33 C52.4284923,77.612 52.951159,78.303 55.1513846,78.532 L55.1513846,79.11 L37.545559,79.11 L37.545559,78.532 C39.8030769,78.418 40.6715077,78.133 41.3660513,77.268 C42.0073231,76.46 42.1781949,75.307 42.1781949,71.735 L42.1781949,62.284 C42.1781949,58.827 41.9470154,57.5 41.073559,56.235 C40.2634256,55.137 39.2201026,54.676 37.2530667,54.565 L37.1967795,53.985 C40.6715077,53.178 42.0646154,52.835 44.8990769,51.967 C47.5043692,51.219 48.9004923,50.758 52.4284923,49.547 L52.4284923,55.022 C56.4258872,50.928 59.1477744,49.547 63.0285744,49.547 C65.6378872,49.547 67.7778051,50.412 68.9367179,51.909 C69.9237538,53.178 70.2695179,54.905 70.2695179,57.963 L70.2695179,74.33 C70.2695179,75.999 70.3237949,76.518 70.6755897,77.151 C71.1389538,78.016 71.9510974,78.418 73.7442462,78.532 L73.7442462,79.11 L57.2973333,79.11" id="Fill-2" sketch:type="MSShapeGroup"></path>
            <path d="M85.856041,79.86 C83.6538051,79.86 81.9139282,79.573 77.9195487,78.42 C75.3695385,77.67 74.8478769,77.5 72.9964308,76.805 L72.4194872,65.338 L72.9964308,65.338 C76.6450462,73.811 82.0305231,79.11 86.9566564,79.11 C89.5036513,79.11 91.1832205,77.442 91.1832205,74.963 C91.1832205,72.424 89.8494154,70.987 85.7404513,69.602 L82.899959,68.623 C75.4831179,66.086 72.590359,63.207 72.590359,58.996 C72.590359,53.582 77.9195487,49.547 84.9876103,49.547 C88.0552615,49.547 90.9490256,50.008 95.2972103,51.219 L95.8741538,60.67 L95.2972103,60.67 C92.8065026,54.735 88.2261333,50.295 84.5222359,50.295 C82.3189949,50.295 80.4675487,52.026 80.4675487,54.157 C80.4675487,56.465 82.2657231,58.192 85.9686154,59.405 L89.9087179,60.67 C96.0510564,62.629 98.713641,65.338 98.713641,69.43 C98.713641,75.479 93.3281641,79.86 85.856041,79.86" id="Fill-3" sketch:type="MSShapeGroup"></path>
            <path d="M118.9328,56.289 C118.644328,52.2 117.427118,50.354 115.111303,50.354 C111.925046,50.354 110.186174,54.213 110.186174,61.245 L119.107692,61.245 C119.107692,58.653 119.049395,57.788 118.9328,56.289 M125.825969,74.846 C123.159364,78.075 119.226297,79.86 114.707241,79.86 C106.017908,79.86 99.4162256,73.52 99.4162256,65.051 C99.4162256,56.407 106.364677,49.547 115.170605,49.547 C122.871897,49.547 128.373969,54.331 129.36,61.934 L110.186174,61.934 C110.244472,69.139 113.430728,72.713 119.859528,72.713 C122.293949,72.713 124.318277,72.139 126.057149,70.928 C127.332656,70.063 127.912615,69.43 129.068513,67.641 L129.591179,67.873 C128.201087,71.502 127.562831,72.659 125.825969,74.846" id="Fill-4" sketch:type="MSShapeGroup"></path>
            <path d="M149.638462,56.289 C149.350995,52.2 148.133785,50.354 145.816964,50.354 C142.630708,50.354 140.891836,54.213 140.891836,61.245 L149.813354,61.245 C149.813354,58.653 149.753046,57.788 149.638462,56.289 M156.533641,74.846 C153.864021,78.075 149.930954,79.86 145.411897,79.86 C136.723569,79.86 130.122892,73.52 130.122892,65.051 C130.122892,56.407 137.069333,49.547 145.875262,49.547 C153.577559,49.547 159.077621,54.331 160.066667,61.934 L140.891836,61.934 C140.950133,69.139 144.13639,72.713 150.566195,72.713 C152.99961,72.713 155.023938,72.139 156.76281,70.928 C158.037313,70.063 158.620287,69.43 159.774174,67.641 L160.296841,67.873 C158.906749,71.502 158.269497,72.659 156.533641,74.846" id="Fill-5" sketch:type="MSShapeGroup"></path>
            <path d="M178.901955,78.5433653 C181.10017,78.3143653 181.619821,77.6233653 181.619821,74.3413653 L181.619821,62.0043653 C181.619821,57.2243653 181.559514,56.4183653 180.98257,55.3243653 C180.578508,54.5173653 179.419596,53.8793653 178.377278,53.8793653 C177.044478,53.8793653 175.599103,54.5763653 174.033114,55.9553653 L174.033114,74.3413653 C174.033114,77.6233653 174.55377,78.3143653 176.751985,78.5433653 L176.751985,79.1213653 L159.356235,79.160229 L159.356235,78.582229 C161.613753,78.468229 162.484194,78.183229 163.180748,77.318229 C163.817999,76.510229 163.993897,75.357229 163.993897,71.785229 L163.993897,62.334229 C163.993897,58.877229 163.759702,57.550229 162.890266,56.285229 C162.077117,55.187229 161.036809,54.726229 159.066758,54.615229 L159.009466,54.035229 C162.484194,53.228229 163.666221,52.8463653 166.500683,51.9783653 C169.109996,51.2303653 170.503103,50.7693653 174.033114,49.5583653 L174.033114,55.0333653 C178.031514,50.9393653 180.74938,49.5583653 184.62817,49.5583653 C187.238488,49.5583653 189.383432,50.4233653 190.541339,51.9203653 C191.524355,53.1893653 191.870119,54.9163653 191.870119,57.9743653 L191.870119,74.3413653 C191.870119,76.0103653 191.930426,76.5293653 192.277196,77.1623653 C192.739555,78.0273653 193.551698,78.4293653 195.348867,78.5433653 L195.348867,79.1213653 L178.901955,79.1213653 L178.901955,78.5433653 Z" id="Fill-6" sketch:type="MSShapeGroup"></path>
            <path d="M56.5937436,45.084 C53.6376615,45.084 49.0050256,44.452 44.1422154,43.416 C42.4023385,43.008 41.8806769,42.954 41.2997128,42.954 C40.1408,42.954 39.6221538,43.299 39.387959,44.334 L38.8120205,44.334 L38.2310564,26.528 L38.8120205,26.528 C39.9116308,30.1 40.4885744,31.252 42.9802872,34.996 C44.4306872,37.188 46.107241,39.206 47.9657231,40.995 C50.4574359,43.299 53.0014154,44.334 56.1836513,44.334 C60.0684718,44.334 62.7310564,41.973 62.7310564,38.457 C62.7310564,35.172 60.2986462,32.868 54.5060923,30.622 L48.8301333,28.432 C41.5329026,25.608 38.3486564,22.381 38.3486564,17.772 C38.3486564,10.625 44.836759,5.147 53.4084923,5.147 C55.4308103,5.147 57.4048821,5.438 60.3569436,6.069 L62.2114051,6.477 C63.4245949,6.764 64.1774359,6.877 64.8217231,6.877 C65.6871385,6.877 65.9766154,6.59 66.2098051,5.608 L66.7867487,5.608 L67.4209846,19.959 L66.8450462,19.959 C63.8889641,11.2 58.7386872,5.899 53.0014154,5.899 C49.2934974,5.899 46.8007795,8.145 46.8007795,11.485 C46.8007795,13.159 47.6129231,14.831 48.8301333,15.813 C50.2212308,16.848 52.9431179,18.233 56.0117744,19.381 L61.4012718,21.458 C67.886359,23.991 70.9560205,27.335 70.9560205,32.352 C70.9560205,39.61 64.7634256,45.084 56.5937436,45.084" id="Fill-7" sketch:type="MSShapeGroup"></path>
            <path d="M79.1287179,12.93 C75.7725949,12.93 72.9924103,10.221 72.9924103,6.819 C72.9924103,3.479 75.7132923,0.711 79.1287179,0.711 C82.5491692,0.711 85.3253333,3.42 85.3253333,6.819 C85.3253333,10.221 82.5491692,12.93 79.1287179,12.93 M70.4403897,44.334 L70.4403897,43.756 C72.5290462,43.645 73.2808821,43.358 73.9191385,42.493 C74.5553846,41.686 74.7312821,40.534 74.7312821,36.959 L74.7312821,27.508 C74.7312821,24.053 74.4377846,22.725 73.5683487,21.458 C72.7572103,20.364 71.7158974,19.901 69.7478564,19.79 L69.6885538,19.209 C72.7572103,18.52 73.7995282,18.233 77.3938667,17.194 C80.9811692,16.153 81.9732308,15.871 84.9242872,14.772 L84.9242872,36.959 C84.9242872,40.534 85.0971692,41.569 85.7354256,42.493 C86.3123692,43.358 87.1235077,43.645 89.2101538,43.756 L89.2101538,44.334 L70.4403897,44.334" id="Fill-8" sketch:type="MSShapeGroup"></path>
            <path d="M105.544492,23.071 C105.544492,18.001 104.215713,15.522 101.667713,15.522 C99.1770051,15.522 98.0773949,17.596 98.0773949,22.321 C98.0773949,27.797 99.2936,30.274 101.958195,30.274 C104.563487,30.274 105.544492,28.315 105.544492,23.358 L105.544492,23.071 L105.544492,23.071 Z M106.067159,43.989 C105.490215,43.989 104.157415,44.047 102.884923,44.106 C101.379241,44.223 100.511815,44.223 99.6986667,44.223 C98.0773949,44.223 96.9737641,44.165 95.1213128,43.873 C93.9061128,44.68 93.3874667,45.604 93.3874667,47.102 C93.3874667,50.961 97.6683077,53.672 103.809641,53.672 C108.965949,53.672 112.557272,51.424 112.557272,48.194 C112.557272,45.545 110.182154,43.989 106.067159,43.989 L106.067159,43.989 Z M100.682687,54.71 C92.6929231,54.71 87.7667897,52.518 87.7667897,49.002 C87.7667897,46.872 89.8494154,45.026 93.7915282,43.645 C89.619241,42.725 87.4742974,40.704 87.4742974,37.707 C87.4742974,34.713 89.5609436,32.12 94.1986051,29.696 C92.4587282,29.122 91.7651897,28.778 90.8364513,27.971 C89.4433436,26.76 88.6362256,24.912 88.6362256,23.188 C88.6362256,18.69 94.0227077,15.176 101.783303,14.772 L101.783303,13.678 C101.783303,8.145 104.563487,4.573 108.905641,4.573 C111.916,4.573 114.124267,6.649 114.124267,9.356 C114.124267,11.893 112.380369,13.795 110.068574,13.795 C108.792062,13.795 107.865333,13.334 106.648123,12.065 C105.432923,10.795 105.026851,10.567 104.390605,10.567 C103.055795,10.567 102.421559,11.661 102.421559,14.198 L102.421559,14.772 L102.940205,14.772 C109.430318,14.772 114.989682,18.403 114.989682,22.551 C114.989682,27.276 109.140841,31.024 101.724,31.024 C99.3518974,31.024 97.3215385,30.737 94.8338462,29.93 C93.8468103,30.737 93.5583385,31.252 93.5583385,32.176 C93.5583385,34.422 95.3524923,35.229 100.452513,35.229 C101.321949,35.229 102.592431,35.229 104.273005,35.114 C105.778687,35.055 107.054195,34.942 108.153805,34.942 C114.355446,34.942 118.812185,38.457 118.812185,43.299 C118.812185,49.752 110.936,54.71 100.682687,54.71 L100.682687,54.71 Z" id="Fill-9" sketch:type="MSShapeGroup"></path>
            <path d="M135.961682,44.334 L135.961682,43.756 C138.160903,43.528 138.686585,42.78 138.686585,39.557 L138.686585,24.338 C138.686585,22.264 138.511692,21.403 137.930728,20.596 C137.408062,19.842 136.367754,19.323 135.384738,19.323 C134.052944,19.323 132.721149,19.959 130.924985,21.458 L130.924985,38.112 C130.924985,41.053 130.981272,41.627 131.273764,42.376 C131.618523,43.241 132.257785,43.645 133.645867,43.756 L133.645867,44.334 L116.03401,44.334 L116.03401,43.756 C118.297559,43.645 119.166995,43.358 119.859528,42.493 C120.495774,41.686 120.670667,40.534 120.670667,36.959 L120.670667,13.276 C120.670667,9.819 120.437477,8.491 119.573067,7.282 C118.761928,6.127 117.720615,5.67 115.747549,5.608 L115.688246,4.975 C118.992103,4.286 120.266605,3.999 123.393559,3.192 C126.639118,2.327 127.797026,1.981 130.924985,0.942 L130.924985,20.538 C133.068923,18.748 133.822769,18.174 135.149538,17.309 C137.873436,15.52 140.132964,14.772 142.564369,14.772 C144.709313,14.772 146.276308,15.405 147.375918,16.735 C148.477538,18.059 148.8816,19.672 148.8816,22.842 L148.8816,38.112 L148.935877,39.557 C148.993169,41.223 148.993169,41.745 149.344964,42.376 C149.805313,43.241 150.616451,43.645 152.356328,43.756 L152.356328,44.334 L135.961682,44.334" id="Fill-10" sketch:type="MSShapeGroup"></path>
            <path d="M156.643627,43.1422775 C154.729863,41.5872775 154.035319,39.5702775 154.035319,35.3642775 L154.035319,18.1342775 L146.91097,18.1342775 C150.214827,16.6922775 151.430027,15.9422775 154.150909,13.9832775 C155.827463,12.7722775 157.196266,11.4832639 158.584348,10.1602639 C160.902174,7.96726385 161.884184,6.87526385 164.028123,3.76426385 L164.028123,15.5202639 L171.328369,15.5202639 L169.876964,18.1722639 L164.028123,18.1722639 L164.028123,34.7662639 C164.028123,39.1452639 165.422235,40.8752639 168.837661,40.8752639 C169.937271,40.8752639 170.693128,40.7602639 172.139507,40.2442639 L172.485271,40.7012639 C168.20041,43.8122639 165.302625,45.0232639 162.118379,45.0232639 C159.859856,45.0232639 158.149309,44.3532775 156.643627,43.1422775 Z" id="Fill-11" sketch:type="MSShapeGroup"></path>
        </g>
    </g>
</svg>